<svg xmlns="http://www.w3.org/2000/svg" width="6.301" height="10.141" viewBox="0 0 6.301 10.141"><defs><style>.a{fill:#fff;}</style></defs><path class="a" d="M41.737,14.843a17.337,17.337,0,0,1-2.74.166c-1.749,0-3.288-.436-3.288-2.865V7.72c0-2.429,1.56-2.845,3.309-2.845a17.072,17.072,0,0,1,2.719.166c.19.021.274.1.274.27V6.558a.277.277,0,0,1-.274.27H38.892c-.632,0-.864.208-.864.914v1.2h3.6a.277.277,0,0,1,.274.27v1.267a.277.277,0,0,1-.274.27h-3.6v1.412c0,.685.232.914.864.914h2.845a.277.277,0,0,1,.274.27v1.246C42.011,14.739,41.927,14.822,41.737,14.843Z" transform="translate(-35.71 -4.872)"/></svg>