<svg xmlns="http://www.w3.org/2000/svg" width="27.009" height="22.737" viewBox="0 0 27.009 22.737"><defs><style>.a{fill:#fff;}</style></defs><path class="a" d="M25,0H4.832a2.068,2.068,0,0,0-1.77,1A2.024,2.024,0,0,0,3,3.011L5.021,6.79H1.354A1.374,1.374,0,0,0,.2,7.413,1.317,1.317,0,0,0,.153,8.721L6.644,20.806a1.339,1.339,0,0,0,2.36,0l1.77-3.281,2.213,4.132a2.1,2.1,0,0,0,3.667,0L26.771,2.907A1.906,1.906,0,0,0,26.708.955,1.928,1.928,0,0,0,25,0ZM15.98,7.911l-4.426,8.181a.85.85,0,0,1-.78.457.889.889,0,0,1-.78-.457l-4.363-8.1a.808.808,0,0,1,.717-1.184h8.936a.729.729,0,0,1,.653.353A.689.689,0,0,1,15.98,7.911Z"/></svg>