<svg xmlns="http://www.w3.org/2000/svg" width="8.994" height="10.01" viewBox="0 0 8.994 10.01"><defs><style>.a{fill:#fff;}</style></defs><path class="a" d="M28.621,4.983a.2.2,0,0,0-.211.166l-1.96,7.164c-.021.145-.063.208-.19.208s-.169-.062-.19-.208L24.111,5.15a.2.2,0,0,0-.211-.166H21.962a.193.193,0,0,0-.169.083.16.16,0,0,0-.042.166s2.4,8.223,2.424,8.306a2.039,2.039,0,0,0,2.086,1.453,2.087,2.087,0,0,0,2.086-1.453c.042-.1,2.381-8.306,2.381-8.306a.16.16,0,0,0-.042-.166.262.262,0,0,0-.169-.083Z" transform="translate(-21.743 -4.983)"/></svg>