<svg xmlns="http://www.w3.org/2000/svg" width="8.873" height="9.911" viewBox="0 0 8.873 9.911"><defs><style>.a{fill:#fff;}</style></defs><path class="a" d="M50.028,14.873h-2.15a.342.342,0,0,1-.358-.208l-1.876-2.907L43.959,14.6c-.084.166-.19.27-.337.27h-2a.2.2,0,0,1-.148-.042.187.187,0,0,1-.063-.145c0-.042.021-.062.021-.083l2.929-4.817L41.387,5.218a.123.123,0,0,1-.021-.083.178.178,0,0,1,.211-.166H43.79c.148,0,.253.125.337.249l1.728,2.7,1.686-2.7a.418.418,0,0,1,.337-.249h2a.191.191,0,0,1,.211.166c0,.021-.021.062-.021.083l-2.95,4.61L50.2,14.6a.292.292,0,0,1,.042.125A.193.193,0,0,1,50.028,14.873Z" transform="translate(-41.366 -4.965)"/></svg>