<svg xmlns="http://www.w3.org/2000/svg" width="82.807" height="19.612" viewBox="0 0 82.807 19.612"><defs><style>.a{fill:#fff;}.b{fill:#bfbfbf;}</style></defs><path class="a" d="M59.089,19.077h-2.9V5.443h2.9Z" transform="translate(5.033 0.487)"/><path class="a" d="M6.3,8.241a3.071,3.071,0,0,0-1.306.272A3.218,3.218,0,0,0,3.9,9.319a4.188,4.188,0,0,0-.978,2.938,4.254,4.254,0,0,0,.989,2.973,3.266,3.266,0,0,0,1.1.815,3.117,3.117,0,0,0,1.324.274A2.887,2.887,0,0,0,8.4,15.586a3.637,3.637,0,0,0,1.023-1.658l2.563.983a6.147,6.147,0,0,1-1.956,2.973,5.458,5.458,0,0,1-3.688,1.244,5.9,5.9,0,0,1-4.52-1.966A6.954,6.954,0,0,1,0,12.257a6.908,6.908,0,0,1,1.8-4.9A5.863,5.863,0,0,1,6.274,5.41a5.548,5.548,0,0,1,3.744,1.244,5.716,5.716,0,0,1,1.878,3l-2.62,1.007a3.5,3.5,0,0,0-.967-1.706A2.773,2.773,0,0,0,6.3,8.241Z" transform="translate(0 0.485)"/><path class="a" d="M15.745,15.195A3.482,3.482,0,0,0,16.877,16a3.322,3.322,0,0,0,2.679.006,3.48,3.48,0,0,0,1.136-.8A4.225,4.225,0,0,0,21.7,12.2a4.123,4.123,0,0,0-1.012-2.961,3.4,3.4,0,0,0-4.947,0A4.123,4.123,0,0,0,14.733,12.2,4.233,4.233,0,0,0,15.745,15.195ZM18.218,5.41a6.128,6.128,0,0,1,4.643,1.919,6.806,6.806,0,0,1,1.833,4.881A6.806,6.806,0,0,1,22.862,17.1a6.113,6.113,0,0,1-4.643,1.931A6.1,6.1,0,0,1,13.6,17.1a6.826,6.826,0,0,1-1.833-4.892A6.8,6.8,0,0,1,13.6,7.329,6.071,6.071,0,0,1,18.218,5.41Z" transform="translate(1.054 0.485)"/><path class="a" d="M31.166,5.493V8.608a6.507,6.507,0,0,0-.956-.083c-2.2,0-3.294,1.137-3.294,3.66v6.847H23.993V5.446h2.845v2.18A3.351,3.351,0,0,1,28.22,6a4.006,4.006,0,0,1,2.17-.592A3.387,3.387,0,0,1,31.166,5.493Z" transform="translate(2.149 0.484)"/><path class="a" d="M34.507,10.812h6.51A2.962,2.962,0,0,0,40.77,9.7a2.832,2.832,0,0,0-.641-.917,3.254,3.254,0,0,0-2.384-.817,3.11,3.11,0,0,0-3.238,2.843Zm6.858,3.341,2.665.817a5.773,5.773,0,0,1-2.136,2.914,6.314,6.314,0,0,1-3.856,1.149,6.729,6.729,0,0,1-4.8-1.872,6.573,6.573,0,0,1-1.979-5.011A6.5,6.5,0,0,1,33.18,7.305a6.249,6.249,0,0,1,4.531-1.9,6.289,6.289,0,0,1,4.767,1.8A6.736,6.736,0,0,1,44.2,12.072a3.1,3.1,0,0,1-.079.971H34.427a3.375,3.375,0,0,0,.307,1.321,3.216,3.216,0,0,0,.8,1.072,3.632,3.632,0,0,0,2.519.948A3.147,3.147,0,0,0,41.365,14.152Z" transform="translate(2.8 0.485)"/><path class="a" d="M46.671,19.565H43.7V0h2.991V7.878A3.627,3.627,0,0,1,48.245,6.5a5.885,5.885,0,0,1,6.825,1.339,7.351,7.351,0,0,1,1.563,4.845,7.362,7.362,0,0,1-1.642,4.928,5.426,5.426,0,0,1-4.374,1.919A4.233,4.233,0,0,1,46.671,17.5ZM52.6,15.691a4.381,4.381,0,0,0,.956-2.985,4.348,4.348,0,0,0-.944-2.961,3.144,3.144,0,0,0-2.5-1.078,3.177,3.177,0,0,0-2.474,1.078,4.246,4.246,0,0,0-.967,2.961,4.374,4.374,0,0,0,.967,2.973,3.328,3.328,0,0,0,4.958.012Z" transform="translate(3.914)"/><path class="a" d="M72.5,19.066H59.708V16.388l8.084-8.245H59.573v-2.7H72.48v2.6L64.3,16.358H72.5v2.708Z" transform="translate(5.336 0.487)"/><path class="b" d="M.6,3.7A2.087,2.087,0,0,1,.149,3,2.162,2.162,0,0,1,0,2.175a2.188,2.188,0,0,1,.149-.833A2.113,2.113,0,0,1,.6.638,1.943,1.943,0,0,1,1.264.157,1.869,1.869,0,0,1,2.059,0,2.039,2.039,0,0,1,3.53.638a2.227,2.227,0,0,1,.61,1.537,2.11,2.11,0,0,1-.15.83,2.034,2.034,0,0,1-.46.695,2.028,2.028,0,0,1-.674.469,1.955,1.955,0,0,1-.8.157,1.915,1.915,0,0,1-.792-.155A1.988,1.988,0,0,1,.6,3.7Z" transform="translate(78.667 15.286)"/></svg>